# xmcd
#
# Track frame offsets: 
#        150
#        29922
#        46361
#        66378
#        87139
#        111701
#        135277
#        166016
#        201063
#        229911
#        252750
#
# Disc length: 3746 seconds
#
# Revision: 0
# Processed by: cddbd v1.5.2PL0 Copyright (c) Steve Scherf et al.
# Submitted via: ExactAudioCopyFreeDBPlugin 1.0
#
DISCID=980ea00b
DTITLE=John Lee Sanders - Live at Rock Beach
DYEAR=1900
DGENRE=
TTITLE0=Let Me Run That Bayou
TTITLE1=Big Chief
TTITLE2=Get Rhythem
TTITLE3=Never Make Your Move too Soon
TTITLE4=Blue Eyes Gone
TTITLE5=New Orleans Medley
TTITLE6=Yellow Moon Interstate
TTITLE7=I'd Rather Go Blind
TTITLE8=Lost In the Shuffle
TTITLE9=I'd Trade a Lifetime
TTITLE10=Foreclose on the House of Love
EXTD=
EXTT0=
EXTT1=
EXTT2=
EXTT3=
EXTT4=
EXTT5=
EXTT6=
EXTT7=
EXTT8=
EXTT9=
EXTT10=
PLAYORDER=
